<svg xmlns="http://www.w3.org/2000/svg" fill="none" preserveAspectRatio="none" viewBox="0 0 24 24"><path clip-rule="evenodd" d="M5.83076 5.83076C6.33844 5.32308 7.16156 5.32308 7.66924 5.83076L12 10.1615L16.3308 5.83076C16.8384 5.32308 17.6616 5.32308 18.1692 5.83076C18.6769 6.33844 18.6769 7.16156 18.1692 7.66924L13.8385 12L18.1692 16.3308C18.6769 16.8384 18.6769 17.6616 18.1692 18.1692C17.6616 18.6769 16.8384 18.6769 16.3308 18.1692L12 13.8385L7.66924 18.1692C7.16156 18.6769 6.33844 18.6769 5.83076 18.1692C5.32308 17.6616 5.32308 16.8384 5.83076 16.3308L10.1615 12L5.83076 7.66924C5.32308 7.16156 5.32308 6.33844 5.83076 5.83076Z" fill="currentColor" fill-rule="evenodd"></path></svg>
