<svg viewBox="0 0 24 24" fill="none" xmlns="http://www.w3.org/2000/svg"><path d="M3 3l18 18M10.477 10.48a3 3 0 004.243 4.243" stroke="currentColor" stroke-width="1.5" stroke-linecap="round" stroke-linejoin="round"></path><path d="M6.228 6.228C4.657 7.45 3.521 9.053 2.457 11.084a1.012 1.012 0 000 .832C3.423 16.49 7.36 19.5 12 19.5c1.707 0 3.315-.318 4.778-.883" stroke="currentColor" stroke-width="1.5" stroke-linecap="round" stroke-linejoin="round"></path><path d="M9.88 4.698A9.48 9.48 0 0112 4.5c4.638 0 8.573 3.007 9.963 7.178.07.207.07.431 0 .639a11.94 11.94 0 01-2.124 3.399" stroke="currentColor" stroke-width="1.5" stroke-linecap="round" stroke-linejoin="round"></path></svg>
