<svg xmlns="http://www.w3.org/2000/svg" fill="none" preserveAspectRatio="none" viewBox="0 0 24 24"><path d="M17.9754 4.0103C17.8588 4.00078 17.6965 4 17.4 4H9.8C8.94342 4 8.36113 4.00078 7.91104 4.03755C7.47262 4.07337 7.24842 4.1383 7.09202 4.21799C6.71569 4.40973 6.40973 4.71569 6.21799 5.09202C6.1383 5.24842 6.07337 5.47262 6.03755 5.91104C6.00078 6.36113 6 6.94342 6 7.8V16.1707C6.31278 16.0602 6.64936 16 7 16H18L18 4.6C18 4.30347 17.9992 4.14122 17.9897 4.02463C17.9893 4.01999 17.9889 4.0156 17.9886 4.01145C17.9844 4.01107 17.98 4.01068 17.9754 4.0103ZM17.657 18H7C6.44772 18 6 18.4477 6 19C6 19.5523 6.44772 20 7 20H17.657C17.5343 19.3301 17.5343 18.6699 17.657 18ZM4 19L4 7.7587C3.99999 6.95373 3.99998 6.28937 4.04419 5.74817C4.09012 5.18608 4.18868 4.66937 4.43597 4.18404C4.81947 3.43139 5.43139 2.81947 6.18404 2.43597C6.66937 2.18868 7.18608 2.09012 7.74817 2.04419C8.28937 1.99998 8.95373 1.99999 9.7587 2L17.4319 2C17.6843 1.99997 17.9301 1.99994 18.1382 2.01695C18.3668 2.03562 18.6366 2.07969 18.908 2.21799C19.2843 2.40973 19.5903 2.71569 19.782 3.09202C19.9203 3.36344 19.9644 3.63318 19.9831 3.86177C20.0001 4.06993 20 4.31573 20 4.56812L20 17C20 17.1325 19.9736 17.2637 19.9225 17.386C19.4458 18.5253 19.4458 19.4747 19.9225 20.614C20.0517 20.9227 20.0179 21.2755 19.8325 21.5541C19.6471 21.8326 19.3346 22 19 22H7C5.34315 22 4 20.6569 4 19Z" fill="currentColor"></path></svg>
