<svg height="1em" style="flex:none;line-height:1" viewBox="0 0 24 24" width="1em" xmlns="http://www.w3.org/2000/svg"><title>Canva</title><path d="M12 0C5.373 0 0 5.373 0 12s5.373 12 12 12 12-5.373 12-12S18.627 0 12 0zm5.568 14.794c-.478 1.196-1.315 2.157-2.4 2.757-.544.3-1.136.449-1.728.449-.592 0-1.184-.149-1.728-.449-1.085-.6-1.922-1.561-2.4-2.757-.239-.598-.359-1.236-.359-1.914s.12-1.316.359-1.914c.478-1.196 1.315-2.157 2.4-2.757.544-.3 1.136-.449 1.728-.449.592 0 1.184.149 1.728.449 1.085.6 1.922 1.561 2.4 2.757.239.598.359 1.236.359 1.914s-.12 1.316-.359 1.914z" fill="#00C4CC"></path><path d="M15.84 12.88c0 .8-.32 1.52-.88 2.08s-1.28.88-2.08.88-1.52-.32-2.08-.88-.88-1.28-.88-2.08.32-1.52.88-2.08 1.28-.88 2.08-.88 1.52.32 2.08.88.88 1.28.88 2.08z" fill="#7B68EE"></path></svg>
