<svg xmlns="http://www.w3.org/2000/svg" fill="none" preserveAspectRatio="none" viewBox="0 0 24 24"><path d="M8.25675 3H15.7393C16.5443 2.99999 17.2087 2.99998 17.7499 3.04419C18.312 3.09012 18.8287 3.18868 19.314 3.43597C20.0667 3.81947 20.6786 4.43139 21.0621 5.18404C21.3094 5.66937 21.4079 6.18608 21.4539 6.74817C21.4981 7.28936 21.4981 7.95372 21.498 8.75868V14.7135C21.498 14.7501 21.4981 14.7861 21.4981 14.8216C21.4983 15.4471 21.4985 15.9109 21.4135 16.3179C21.0884 17.8743 19.8723 19.0904 18.3159 19.4155C17.909 19.5005 17.4451 19.5003 16.8197 19.5C16.7842 19.5 16.7481 19.5 16.7115 19.5C16.4463 19.5 16.3687 19.5008 16.297 19.5066C15.9916 19.5315 15.696 19.6262 15.433 19.7835C15.3712 19.8204 15.3077 19.8649 15.0919 20.019L13.5093 21.1495C13.4863 21.1659 13.4626 21.1829 13.4384 21.2004C13.1832 21.3843 12.8629 21.6152 12.4892 21.7099C12.1668 21.7915 11.8292 21.7915 11.5069 21.7099C11.1332 21.6152 10.8129 21.3843 10.5577 21.2004C10.5335 21.1829 10.5098 21.1659 10.4868 21.1495L8.90424 20.019C8.68843 19.8649 8.62488 19.8204 8.5631 19.7835C8.30011 19.6262 8.0045 19.5315 7.69909 19.5066C7.62734 19.5008 7.5498 19.5 7.28459 19.5C7.24799 19.5 7.21193 19.5 7.1764 19.5C6.551 19.5003 6.08712 19.5005 5.68019 19.4155C4.12375 19.0904 2.90765 17.8743 2.58255 16.3179C2.49755 15.9109 2.49775 15.4471 2.49802 14.8216C2.49803 14.7861 2.49805 14.7501 2.49805 14.7135L2.49805 8.7587C2.49803 7.95373 2.49802 7.28937 2.54224 6.74817C2.58816 6.18608 2.68673 5.66937 2.93402 5.18404C3.31751 4.43139 3.92944 3.81947 4.68208 3.43597C5.16742 3.18868 5.68412 3.09012 6.24622 3.04419C6.78742 2.99998 7.45178 2.99999 8.25675 3ZM6.40908 5.03755C5.97067 5.07337 5.74646 5.1383 5.59006 5.21799C5.21374 5.40973 4.90778 5.7157 4.71603 6.09202C4.63634 6.24842 4.57142 6.47262 4.5356 6.91104C4.49882 7.36113 4.49805 7.94342 4.49805 8.8V14.7135C4.49805 15.4948 4.50337 15.7321 4.5403 15.9089C4.70285 16.6871 5.3109 17.2952 6.08912 17.4577C6.2659 17.4947 6.50327 17.5 7.28459 17.5L7.31898 17.5C7.53526 17.5 7.69855 17.4999 7.86153 17.5132C8.47235 17.563 9.06358 17.7525 9.58956 18.067C9.7299 18.1509 9.86276 18.2458 10.0387 18.3716L11.6493 19.522C11.8276 19.6493 11.921 19.7154 11.9915 19.7588C11.9938 19.7602 11.996 19.7615 11.998 19.7628C12.0001 19.7615 12.0023 19.7602 12.0046 19.7588C12.0751 19.7154 12.1685 19.6493 12.3468 19.522L13.9574 18.3716C14.1333 18.2458 14.2662 18.1509 14.4065 18.067C14.9325 17.7525 15.5237 17.563 16.1346 17.5132C16.2975 17.4999 16.4608 17.5 16.6771 17.5L16.7115 17.5C17.4928 17.5 17.7302 17.4947 17.907 17.4577C18.6852 17.2952 19.2932 16.6871 19.4558 15.9089C19.4927 15.7321 19.498 15.4948 19.498 14.7135V8.8C19.498 7.94342 19.4973 7.36113 19.4605 6.91104C19.4247 6.47262 19.3597 6.24842 19.2801 6.09202C19.0883 5.7157 18.7824 5.40973 18.406 5.21799C18.2496 5.1383 18.0254 5.07337 17.587 5.03755C17.1369 5.00078 16.5546 5 15.698 5H8.29805C7.44147 5 6.85917 5.00078 6.40908 5.03755ZM8 9C8 8.44772 8.44771 8 9 8H15C15.5523 8 16 8.44772 16 9C16 9.55229 15.5523 10 15 10H9C8.44771 10 8 9.55229 8 9ZM7.99805 13C7.99805 12.4477 8.44576 12 8.99805 12H11.998C12.5503 12 12.998 12.4477 12.998 13C12.998 13.5523 12.5503 14 11.998 14H8.99805C8.44576 14 7.99805 13.5523 7.99805 13Z" fill="currentColor"></path></svg>
