<svg xmlns="http://www.w3.org/2000/svg" fill="none" preserveAspectRatio="none" viewBox="0 0 24 24"><path d="M6 4.64049C8.14486 3.74466 9.6336 4.18816 11.3124 4.81066C11.4311 4.85468 11.5513 4.89998 11.6733 4.94592C13.3072 5.56145 15.2418 6.29024 17.7738 5.55803C17.8375 5.53958 17.9132 5.5522 17.9674 5.58772C17.9883 5.60144 17.9973 5.61408 18 5.61807C18 5.6177 18 5.61837 18 5.61807V14.2515C15.8581 14.7893 14.3554 14.3169 12.6399 13.7776C12.448 13.7172 12.2535 13.6561 12.0551 13.5954C11.0694 13.2939 9.9815 13.0088 8.73583 13.0151C7.88099 13.0195 6.97966 13.1602 6 13.4946V4.64049ZM18 14.2793C18 14.2796 18 14.2795 18 14.2793ZM6 15.637C7.06717 15.1778 7.95744 15.0191 8.74594 15.0151C9.68064 15.0104 10.5334 15.2214 11.4701 15.5079C11.657 15.5651 11.8472 15.6255 12.0411 15.6871C13.7733 16.2375 15.806 16.8833 18.556 16.1737C19.4513 15.9427 20 15.1264 20 14.2793V5.61807C20 4.07012 18.4318 3.28577 17.2182 3.63675C15.3407 4.17971 13.9832 3.67281 12.3112 3.04848C12.2112 3.01115 12.1101 2.9734 12.0077 2.93543C10.1745 2.25565 8.06074 1.59138 5.17004 2.81991C4.41981 3.13875 4 3.87463 4 4.61803V21C4 21.5523 4.44772 22 5 22C5.55228 22 6 21.5523 6 21V15.637Z" fill="currentColor"></path></svg>
