<svg height="1em" style="flex:none;line-height:1" viewBox="0 0 24 24" width="1em" xmlns="http://www.w3.org/2000/svg"><title>SharePoint</title><path d="M21.5 7.5C21.5 6.119 20.381 5 19 5H14.5C13.119 5 12 6.119 12 7.5V16.5C12 17.881 13.119 19 14.5 19H19C20.381 19 21.5 17.881 21.5 16.5V7.5Z" fill="#0078D4"></path><path d="M10.5 9.5C10.5 8.119 9.381 7 8 7H3.5C2.119 7 1 8.119 1 9.5V14.5C1 15.881 2.119 17 3.5 17H8C9.381 17 10.5 15.881 10.5 14.5V9.5Z" fill="#0078D4"></path><circle cx="17" cy="12" r="2" fill="white"></circle><circle cx="6" cy="12" r="1.5" fill="white"></circle></svg>
