<svg xmlns="http://www.w3.org/2000/svg" fill="none" preserveAspectRatio="none" viewBox="0 0 24 24"><g><path d="M10.5 13.5C9.94772 13.5 9.5 13.9477 9.5 14.5C9.5 15.0523 9.94772 15.5 10.5 15.5H13.5C14.0523 15.5 14.5 15.0523 14.5 14.5C14.5 13.9477 14.0523 13.5 13.5 13.5H10.5Z" fill="currentColor"></path><path d="M10.5024 2.70381C9.49247 1.51744 7.57383 1.89038 7.08184 3.36871L6.35774 5.54448L4.23778 6.41859C2.79737 7.0125 2.55918 8.95248 3.81312 9.87722L4.20447 10.1658C4.16709 10.1815 4.12957 10.1989 4.09202 10.218C3.7157 10.4097 3.40974 10.7157 3.21799 11.092C3.07969 11.3634 3.03563 11.6332 3.01695 11.8618C2.99994 12.0699 2.99997 12.3157 3 12.5681L3 16.2413C2.99999 17.0463 2.99998 17.7106 3.0442 18.2518C3.09012 18.8139 3.18869 19.3306 3.43598 19.816C3.81947 20.5686 4.43139 21.1805 5.18404 21.564C5.66938 21.8113 6.18608 21.9099 6.74818 21.9558C7.28938 22 7.95375 22 8.75873 22H15.2413C16.0463 22 16.7106 22 17.2518 21.9558C17.8139 21.9099 18.3306 21.8113 18.816 21.564C19.5686 21.1805 20.1805 20.5686 20.564 19.816C20.8113 19.3306 20.9099 18.8139 20.9558 18.2518C21 17.7106 21 17.0463 21 16.2413L21 12.5681C21 12.3158 21.0001 12.0699 20.9831 11.8618C20.9644 11.6332 20.9203 11.3634 20.782 11.092C20.5903 10.7157 20.2843 10.4097 19.908 10.218C19.6366 10.0797 19.3668 10.0356 19.1382 10.017C19.112 10.0148 19.0851 10.0129 19.0577 10.0113L20.2749 7.37423C20.503 6.88139 20.6994 6.45713 20.7649 6.04038C20.9351 4.95772 20.5013 3.86842 19.6335 3.19907C19.2995 2.94141 18.8652 2.76827 18.3608 2.56714L18.2489 2.52249L18.1476 2.48187C17.6849 2.29622 17.2848 2.13572 16.8917 2.08803C15.8724 1.96439 14.8606 2.37064 14.2099 3.16488C13.9589 3.47118 13.781 3.86377 13.5751 4.31784L13.5103 4.46072L11.9888 4.4499L10.5024 2.70381ZM15.5108 4.89635C15.6586 4.57904 15.7091 4.49082 15.7569 4.43243C15.9738 4.16768 16.3111 4.03226 16.6509 4.07348C16.7481 4.08527 16.8831 4.13025 17.5061 4.37944C18.1871 4.65185 18.3298 4.71932 18.412 4.78272C18.7013 5.00583 18.8459 5.36893 18.7892 5.72982C18.773 5.83237 18.7158 5.97946 18.4084 6.64543L16.8601 10H14.9389L14.77 9.46716L15.9713 7.51391C16.5369 6.59417 16.2555 5.49079 15.5108 4.89635ZM12.8422 10L7.22926 10C7.11966 9.86097 6.99103 9.73578 6.84569 9.62859L5.00016 8.26758L7.12012 7.39348C7.65748 7.17191 8.07187 6.72753 8.25541 6.17603L8.97951 4.00025L10.4659 5.74634C10.8427 6.18893 11.3934 6.44572 11.9746 6.44985L14.2677 6.46616L13.0664 8.41941C12.7749 8.89325 12.6946 9.46599 12.8422 10ZM17.5189 12H18.4C18.6965 12 18.8588 12.0008 18.9754 12.0103L18.9886 12.0115L18.9897 12.0246C18.9992 12.1412 19 12.3035 19 12.6V16.2C19 17.0566 18.9992 17.6389 18.9625 18.089C18.9266 18.5274 18.8617 18.7516 18.782 18.908C18.5903 19.2843 18.2843 19.5903 17.908 19.782C17.7516 19.8617 17.5274 19.9266 17.089 19.9625C16.6389 19.9992 16.0566 20 15.2 20H8.80001C7.94343 20 7.36113 19.9992 6.91104 19.9625C6.47263 19.9266 6.24842 19.8617 6.09202 19.782C5.7157 19.5903 5.40974 19.2843 5.21799 18.908C5.1383 18.7516 5.07338 18.5274 5.03756 18.089C5.00078 17.6389 5.00001 17.0566 5.00001 16.2V12.6C5.00001 12.3035 5.00078 12.1412 5.01031 12.0246L5.01145 12.0115L5.02464 12.0103C5.14122 12.0008 5.30348 12 5.60001 12H17.4798C17.4929 12.0003 17.5059 12.0003 17.5189 12Z" fill="currentColor"></path></g></svg>
