<svg height="1em" style="flex:none;line-height:1" viewBox="0 0 24 24" width="1em" xmlns="http://www.w3.org/2000/svg"><title>Microsoft Teams</title><path d="M21 8.5C21 7.119 19.881 6 18.5 6H14.5C13.119 6 12 7.119 12 8.5V15.5C12 16.881 13.119 18 14.5 18H18.5C19.881 18 21 16.881 21 15.5V8.5Z" fill="#5B5FC7"></path><path d="M10.5 10.5C10.5 9.119 9.381 8 8 8H4C2.619 8 1.5 9.119 1.5 10.5V13.5C1.5 14.881 2.619 16 4 16H8C9.381 16 10.5 14.881 10.5 13.5V10.5Z" fill="#5B5FC7"></path><circle cx="16.5" cy="12" r="1.5" fill="white"></circle><circle cx="6" cy="12" r="1" fill="white"></circle><path d="M9 12H12" stroke="white" stroke-width="1.5" stroke-linecap="round"></path></svg>
