<svg xmlns="http://www.w3.org/2000/svg" fill="none" preserveAspectRatio="none" viewBox="0 0 24 24"><path d="M18.4554 3.91134C18.3125 3.37787 17.7641 3.06129 17.2307 3.20423L4.19067 6.69829C3.6572 6.84123 3.34062 7.38957 3.48356 7.92303L3.67768 8.64748C3.82062 9.18094 4.36896 9.49753 4.90242 9.35458L17.9424 5.86053C18.4759 5.71758 18.7925 5.16925 18.6495 4.63578L18.4554 3.91134ZM16.713 1.27238C18.3134 0.843553 19.9584 1.7933 20.3873 3.3937L20.5814 4.11814C21.0102 5.71854 20.0605 7.36355 18.4601 7.79238L5.42006 11.2864C5.2801 11.3239 5.1398 11.3509 5 11.3678V17C5 18.1046 5.89543 19 7 19H17C18.1046 19 19 18.1046 19 17V10C19 9.44772 19.4477 9 20 9C20.5523 9 21 9.44772 21 10V17C21 19.2091 19.2091 21 17 21H7C4.79086 21 3 19.2091 3 17V10.8984C2.40442 10.5086 1.94454 9.90674 1.74583 9.16512L1.55171 8.44067C1.12289 6.84027 2.07263 5.19526 3.67303 4.76644L16.713 1.27238ZM9 13C9 12.4477 9.44772 12 10 12H14C14.5523 12 15 12.4477 15 13C15 13.5523 14.5523 14 14 14H10C9.44772 14 9 13.5523 9 13Z" fill="currentColor"></path></svg>
