<svg xmlns="http://www.w3.org/2000/svg" fill="none" preserveAspectRatio="none" viewBox="0 0 24 24"><path d="M16.2196 2.80522C15.3116 1.89725 13.9265 1.66781 12.7743 2.23452L6.47516 5.33265C5.59072 5.76765 4.97638 6.60933 4.83169 7.58428L3.01093 19.8534C2.9644 20.1669 3.06925 20.4839 3.29354 20.7078C3.51783 20.9318 3.835 21.0361 4.14844 20.9891L16.4045 19.1506C17.3748 19.0051 18.2127 18.3942 18.648 17.5149L21.7595 11.2302C22.3305 10.0769 22.1022 8.68786 21.1922 7.77785L16.2196 2.80522ZM13.6569 4.0292C14.041 3.84029 14.5027 3.91677 14.8054 4.21943L19.778 9.19206C20.0814 9.4954 20.1574 9.95841 19.9671 10.3429L16.8556 16.6275C16.7105 16.9206 16.4312 17.1242 16.1078 17.1728L6.83171 18.5642L11.779 13.617C12.6761 13.9685 13.7354 13.7818 14.4603 13.0569C15.4366 12.0806 15.4366 10.4977 14.4603 9.52141C13.484 8.5451 11.9011 8.5451 10.9248 9.52141C10.1999 10.2463 10.0132 11.3056 10.3648 12.2027L5.4369 17.1306L6.81003 7.87787C6.85826 7.55289 7.06304 7.27233 7.35785 7.12733L13.6569 4.0292Z" fill="currentColor"></path></svg>
