<svg xmlns="http://www.w3.org/2000/svg" fill="none" preserveAspectRatio="none" viewBox="0 0 24 24"><path d="M9.52607 2.56121C10.8929 1.19463 13.1085 1.19463 14.4753 2.56121L21.4401 9.52606C22.806 10.8929 22.8065 13.1087 21.4401 14.4753L14.4753 21.4401C13.1087 22.8064 10.8929 22.806 9.52607 21.4401L2.56122 14.4753C1.19465 13.1085 1.19466 10.8928 2.56122 9.52606L9.52607 2.56121ZM9.50068 8.99969C9.28826 8.99947 9.1092 9.15886 9.08466 9.36981C8.93261 10.6881 8.18812 11.4326 6.86982 11.5846C6.65886 11.6092 6.49948 11.7882 6.4997 12.0007C6.50004 12.213 6.65979 12.3917 6.87079 12.4157C8.17039 12.5629 8.96648 13.2995 9.08368 14.6188C9.10286 14.8347 9.28391 14.9999 9.50068 14.9997C9.71735 14.9993 9.898 14.8337 9.91669 14.6179C10.0293 13.3173 10.8173 12.5293 12.1179 12.4167C12.3338 12.398 12.4994 12.2173 12.4997 12.0007C12.4999 11.7839 12.3348 11.6029 12.1188 11.5837C10.7995 11.4665 10.0629 10.6704 9.91572 9.37078C9.89169 9.15979 9.71303 9.00003 9.50068 8.99969Z" fill="currentColor"></path></svg>
