<svg xmlns="http://www.w3.org/2000/svg" fill="none" preserveAspectRatio="none" viewBox="0 0 24 24"><g><path d="M9.50045 9.00045C9.71299 9.00068 9.89157 9.16036 9.91549 9.37155C10.0628 10.6708 10.7996 11.4662 12.1186 11.5835C12.3345 11.6026 12.5007 11.7837 12.5005 12.0005C12.5002 12.2172 12.3336 12.3978 12.1176 12.4165C10.8173 12.5291 10.0291 13.3173 9.91647 14.6176C9.89778 14.8336 9.71722 15.0002 9.50045 15.0005C9.2837 15.0007 9.10264 14.8345 9.08346 14.6186C8.9662 13.2996 8.17078 12.5628 6.87155 12.4155C6.66036 12.3916 6.50068 12.213 6.50045 12.0005C6.50024 11.7879 6.65942 11.6088 6.87057 11.5844C8.18851 11.4323 8.9323 10.6885 9.08444 9.37057C9.10879 9.15942 9.2879 9.00024 9.50045 9.00045Z" fill="currentColor"></path><path d="M9.52584 2.561C10.8926 1.19442 13.1083 1.19442 14.4751 2.561L21.4399 9.52584C22.806 10.8927 22.8063 13.1084 21.4399 14.4751L14.4751 21.4399C13.1084 22.8063 10.8927 22.806 9.52584 21.4399L2.561 14.4751C1.19442 13.1083 1.19442 10.8926 2.561 9.52584L9.52584 2.561ZM13.061 3.97506C12.4753 3.38953 11.5256 3.38953 10.9399 3.97506L3.97506 10.9399C3.38953 11.5256 3.38953 12.4753 3.97506 13.061L10.9399 20.0258C11.5257 20.6109 12.4754 20.6112 13.061 20.0258L20.0258 13.061C20.6112 12.4754 20.6109 11.5257 20.0258 10.9399L13.061 3.97506Z" fill="currentColor"></path></g></svg>
