<svg xmlns="http://www.w3.org/2000/svg" fill="none" preserveAspectRatio="none" viewBox="0 0 24 24"><path d="M13.4195 3.01782C13.3377 2.29622 12.7277 1.75077 12.0014 1.75003C11.2752 1.74929 10.664 2.29349 10.5808 3.01492C10.0613 7.51911 7.51906 10.0614 3.01487 10.5809C2.29345 10.6641 1.74924 11.2753 1.74999 12.0015C1.75073 12.7277 2.29618 13.3378 3.01777 13.4195C7.45808 13.9225 10.1766 16.4402 10.577 20.9479C10.6425 21.6856 11.261 22.2509 12.0016 22.25C12.7422 22.2492 13.3594 21.6825 13.4232 20.9447C13.8079 16.5008 16.5007 13.808 20.9446 13.4233C21.6825 13.3594 22.2491 12.7422 22.25 12.0016C22.2508 11.261 21.6855 10.6426 20.9478 10.5771C16.4402 10.1767 13.9224 7.45812 13.4195 3.01782Z" fill="currentColor"></path></svg>
