<svg xmlns="http://www.w3.org/2000/svg" fill="none" preserveAspectRatio="none" viewBox="0 0 24 24"><path d="M11.9972 5.90071C11.5146 7.3625 10.7636 8.64904 9.70632 9.70636C8.64899 10.7637 7.36245 11.5146 5.90066 11.9972C7.35214 12.4718 8.64503 13.2104 9.71036 14.2517C10.7594 15.2771 11.5171 16.527 11.997 17.956C12.4691 16.5364 13.2145 15.2806 14.2475 14.2475C15.2805 13.2145 16.5364 12.4691 17.9559 11.9971C16.527 11.5171 15.277 10.7594 14.2517 9.7104C13.2103 8.64508 12.4717 7.35218 11.9972 5.90071ZM12.0014 1.75003C12.7277 1.75077 13.3377 2.29622 13.4195 3.01782C13.9224 7.45813 16.4402 10.1767 20.9478 10.5771C21.6855 10.6426 22.2508 11.261 22.25 12.0016C22.2491 12.7422 21.6825 13.3594 20.9446 13.4233C16.5007 13.808 13.8079 16.5008 13.4232 20.9447C13.3594 21.6825 12.7422 22.2492 12.0016 22.25C11.261 22.2509 10.6425 21.6856 10.577 20.9479C10.1766 16.4402 7.45808 13.9225 3.01777 13.4195C2.29618 13.3378 1.75073 12.7277 1.74999 12.0015C1.74925 11.2753 2.29345 10.6641 3.01487 10.5809C7.51907 10.0614 10.0613 7.51911 10.5808 3.01492C10.664 2.29349 11.2752 1.74929 12.0014 1.75003Z" fill="currentColor"></path></svg>
