<svg xmlns="http://www.w3.org/2000/svg" fill="none" preserveAspectRatio="none" viewBox="0 0 24 24"><path d="M5.95982 4.06079C6.69871 3.37873 7.66738 3 8.67294 3H15.327C16.3326 3 17.3013 3.37873 18.0402 4.06079L22.1487 7.85329C23.4007 9.009 23.44 10.9742 22.2352 12.179L13.4142 21C12.6332 21.781 11.3668 21.781 10.5858 21L1.76479 12.179C0.559963 10.9742 0.599248 9.009 1.85127 7.85329L5.95982 4.06079ZM8.00043 7C7.78788 6.99978 7.60899 7.15906 7.58464 7.37021C7.43258 8.68851 6.68851 9.43258 5.37021 9.58464C5.15906 9.60899 4.99978 9.78788 5 10.0004C5.00022 10.213 5.15986 10.3915 5.37106 10.4155C6.67066 10.5627 7.46633 11.2996 7.58352 12.6189C7.6027 12.8348 7.78371 13.0002 8.00047 13C8.21723 12.9998 8.39787 12.8339 8.41656 12.6179C8.52915 11.3173 9.31729 10.5291 10.6179 10.4166C10.8339 10.3979 10.9998 10.2172 11 10.0005C11.0002 9.78371 10.8348 9.6027 10.6189 9.58352C9.29957 9.46633 8.56267 8.67066 8.41546 7.37106C8.39154 7.15986 8.21298 7.00022 8.00043 7Z" fill="currentColor"></path></svg>
