<svg xmlns="http://www.w3.org/2000/svg" fill="none" preserveAspectRatio="none" viewBox="0 0 24 24"><g><path d="M9.00043 7C9.21298 7.00022 9.39154 7.15986 9.41546 7.37106C9.56267 8.67066 10.2996 9.46633 11.6189 9.58352C11.8348 9.6027 12.0002 9.78371 12 10.0005C11.9998 10.2172 11.8339 10.3979 11.6179 10.4166C10.3173 10.5291 9.52915 11.3173 9.41656 12.6179C9.39787 12.8339 9.21723 12.9998 9.00047 13C8.78371 13.0002 8.6027 12.8348 8.58352 12.6189C8.46633 11.2996 7.67066 10.5627 6.37106 10.4155C6.15986 10.3915 6.00022 10.213 6 10.0004C5.99978 9.78788 6.15906 9.60899 6.37021 9.58464C7.68851 9.43258 8.43258 8.68851 8.58464 7.37021C8.60899 7.15906 8.78788 6.99978 9.00043 7Z" fill="currentColor"></path><path d="M8.67295 3C7.66739 3 6.69872 3.37873 5.95983 4.06079L1.85129 7.85329C0.599262 9.009 0.559977 10.9742 1.76481 12.179L10.5858 21C11.3668 21.781 12.6332 21.781 13.4142 21L22.2352 12.179C23.44 10.9742 23.4007 9.009 22.1487 7.85329L18.0402 4.06079C17.3013 3.37873 16.3326 3 15.327 3H8.67295ZM7.31639 5.53039C7.68584 5.18937 8.17017 5 8.67295 5H15.327C15.8298 5 16.3142 5.18937 16.6836 5.53039L20.7922 9.3229C21.2095 9.70813 21.2226 10.3632 20.821 10.7648L12 19.5858L3.17902 10.7648C2.77741 10.3632 2.79051 9.70813 3.20785 9.3229L7.31639 5.53039Z" fill="currentColor"></path></g></svg>
