<svg xmlns="http://www.w3.org/2000/svg" fill="none" preserveAspectRatio="none" viewBox="0 0 24 24"><path d="M11.8624 1.99995C11.9076 1.99998 11.9535 2 12 2C12.0465 2 12.0924 1.99998 12.1376 1.99995C12.933 1.99952 13.5236 1.9992 14.0353 2.1363C15.4156 2.50617 16.4938 3.58436 16.8637 4.96472C16.9462 5.2726 16.9789 5.60909 16.9918 6.00157C17.4707 6.00478 17.889 6.01455 18.2518 6.04419C18.8139 6.09012 19.3306 6.18868 19.816 6.43597C20.5686 6.81947 21.1805 7.43139 21.564 8.18404C21.8113 8.66937 21.9099 9.18608 21.9558 9.74817C22 10.2894 22 10.9537 22 11.7587V15.2413C22 16.0463 22 16.7106 21.9558 17.2518C21.9099 17.8139 21.8113 18.3306 21.564 18.816C21.1805 19.5686 20.5686 20.1805 19.816 20.564C19.3306 20.8113 18.8139 20.9099 18.2518 20.9558C17.7106 21 17.0463 21 16.2413 21H7.75868C6.95372 21 6.28936 21 5.74817 20.9558C5.18608 20.9099 4.66937 20.8113 4.18404 20.564C3.43139 20.1805 2.81947 19.5686 2.43597 18.816C2.18868 18.3306 2.09012 17.8139 2.04419 17.2518C1.99998 16.7106 1.99999 16.0463 2 15.2413V11.7587C1.99999 10.9537 1.99998 10.2894 2.04419 9.74817C2.09012 9.18608 2.18868 8.66937 2.43597 8.18404C2.81947 7.43139 3.43139 6.81947 4.18404 6.43597C4.66937 6.18868 5.18608 6.09012 5.74817 6.04419C6.11105 6.01455 6.52929 6.00478 7.00816 6.00157C7.02106 5.60909 7.0538 5.2726 7.1363 4.96472C7.50617 3.58436 8.58436 2.50617 9.96472 2.1363C10.4764 1.9992 11.067 1.99952 11.8624 1.99995ZM9.00986 6H14.9901C14.981 5.74243 14.9637 5.60115 14.9319 5.48236C14.7469 4.79218 14.2078 4.25308 13.5176 4.06815C13.2954 4.00859 12.9944 4 12 4C11.0056 4 10.7046 4.00859 10.4824 4.06815C9.79218 4.25308 9.25308 4.79218 9.06815 5.48236C9.03632 5.60115 9.01905 5.74243 9.00986 6Z" fill="currentColor"></path></svg>
