<svg xmlns="http://www.w3.org/2000/svg" fill="none" preserveAspectRatio="none" viewBox="0 0 24 24"><path d="M12 4C10.3431 4 9 5.34315 9 7C9 8.65685 10.3431 10 12 10C13.6569 10 15 8.65685 15 7C15 5.34315 13.6569 4 12 4ZM7 7C7 4.23858 9.23858 2 12 2C14.7614 2 17 4.23858 17 7C17 9.76142 14.7614 12 12 12C9.23858 12 7 9.76142 7 7ZM12 15C8.55616 15 5.73717 17.6788 5.51424 21.0657C5.47797 21.6168 5.00182 22.0341 4.45072 21.9978C3.89963 21.9616 3.48229 21.4854 3.51856 20.9343C3.81022 16.5031 7.4956 13 12 13C12.3833 13 12.7613 13.0254 13.1321 13.0748C13.6795 13.1478 14.0642 13.6507 13.9912 14.1982C13.9183 14.7456 13.4154 15.1303 12.8679 15.0573C12.5845 15.0196 12.2948 15 12 15ZM17.9998 14C18.5521 14 18.9998 14.4476 18.9999 14.9999L19 17H21C21.5523 17 22 17.4477 22 18C22 18.5523 21.5523 19 21 19H19.0001V21C19.0001 21.5523 18.5524 22 18.0001 22C17.4478 22 17.0001 21.5523 17.0001 21V19H15C14.4477 19 14 18.5523 14 18C14 17.4477 14.4477 17 15 17H17L16.9999 15.0001C16.9998 14.4478 17.4475 14 17.9998 14Z" fill="currentColor"></path></svg>
