<svg xmlns="http://www.w3.org/2000/svg" viewBox="0 0 32 32" fill="none"><rect width="32" height="32" rx="4" fill="white" stroke="currentColor" stroke-width="2"></rect><path d="M7 13C7 11.3431 8.34315 10 10 10H12C13.6569 10 15 11.3431 15 13V15H17V13C17 11.3431 18.3431 10 20 10H22C23.6569 10 25 11.3431 25 13V15C25 16.6569 23.6569 18 22 18H20V20C20 21.6569 18.6569 23 17 23H15C13.3431 23 12 21.6569 12 20V18H10C8.34315 18 7 16.6569 7 15V13ZM10 12C9.44772 12 9 12.4477 9 13V15C9 15.5523 9.44772 16 10 16H12V13C12 12.4477 11.5523 12 11 12H10ZM20 13V16H22C22.5523 16 23 15.5523 23 15V13C23 12.4477 22.5523 12 22 12H20C19.4477 12 19 12.4477 19 13H20V16H19V18H17V16H18V13H19V13C19 12.4477 19.4477 12 20 12ZM14 20C14 20.5523 14.4477 21 15 21H17C17.5523 21 18 20.5523 18 20V18H14V20Z" fill="currentColor"></path></svg>
