<svg xmlns="http://www.w3.org/2000/svg" fill="none" preserveAspectRatio="none" viewBox="0 0 24 24"><path d="M17.4644 2.07846C16.0558 1.72727 14.6293 2.58443 14.2781 3.99297C14.0655 4.8457 14.2931 5.74827 14.8847 6.39818L16.371 8.031L15.1585 13.2072C14.8542 13.2981 14.5713 13.4014 14.3131 13.4958L14.2978 13.5014C13.5167 13.7871 12.9356 13.9996 12.347 14.0118L12.1579 13.2852L13.2684 11.6749C14.0988 10.4709 13.2944 8.8218 11.8344 8.73487L9.88183 8.61861L8.69357 7.06484C7.80507 5.90305 5.98812 6.15841 5.45428 7.5201L4.74032 9.3412L2.89541 9.99117C1.51592 10.4772 1.19731 12.2841 2.32739 13.2126L3.57165 14.2349C3.49756 14.3518 3.42886 14.4696 3.36527 14.5866C2.83461 15.5627 2.51445 16.7333 2.31979 17.6889C1.94565 19.5256 3.43558 21 5.13508 21H18.4968C20.3724 21 21.9454 19.2005 21.1807 17.2496C20.8589 16.4289 20.4213 15.4968 19.8567 14.721C19.3092 13.9687 18.5258 13.2035 17.4693 13.0155C17.4007 13.0033 17.3325 12.993 17.2648 12.9844L18.3141 8.505L20.3757 7.76724C21.2032 7.47113 21.8279 6.78108 22.0405 5.92834C22.3917 4.5198 21.5345 3.09326 20.126 2.74207L17.4644 2.07846ZM19.7018 5.88418L17.7554 6.58074L16.3637 5.0519C16.2223 4.89651 16.1679 4.6807 16.2187 4.47681C16.3027 4.14003 16.6438 3.93508 16.9805 4.01905L19.6421 4.68266C19.9789 4.76663 20.1839 5.10772 20.0999 5.4445C20.0491 5.64839 19.8997 5.81338 19.7018 5.88418ZM10.4796 12.1959C10.2219 12.5695 10.11 13.0211 10.1589 13.4663C10.0315 13.4161 9.90089 13.3638 9.76642 13.3098C9.66556 13.2694 9.56249 13.2281 9.45692 13.1861C8.51134 12.8103 7.36046 12.3858 6.08401 12.5043C5.68273 12.5416 5.32515 12.657 5.00717 12.8259L3.76501 11.8053L5.45778 11.2089C5.97241 11.0276 6.38271 10.6314 6.58187 10.1234L7.23695 8.45248L8.32722 9.87811C8.65869 10.3115 9.16231 10.5793 9.70698 10.6117L11.4986 10.7184L10.4796 12.1959ZM8.71826 15.0447C8.81744 15.0841 8.91956 15.1254 9.02441 15.1678C9.85316 15.503 10.8521 15.9069 11.9161 15.9965C13.0524 16.0921 14.0679 15.7177 14.849 15.4297L15.0001 15.3741C15.8719 15.0552 16.481 14.871 17.1189 14.9846C17.4139 15.037 17.8009 15.295 18.2396 15.8978C18.6612 16.4771 19.0256 17.232 19.3186 17.9796C19.4183 18.2339 19.3714 18.4669 19.2307 18.6539C19.0831 18.8501 18.8236 19 18.4968 19H5.13508C4.52271 19 4.19222 18.5168 4.27954 18.0881C4.45915 17.2064 4.73129 16.2613 5.12242 15.5418C5.52722 14.7972 5.92383 14.5278 6.26893 14.4957C7.01894 14.4261 7.76573 14.6662 8.71826 15.0447Z" fill="currentColor"></path></svg>
