<svg xmlns="http://www.w3.org/2000/svg" fill="none" preserveAspectRatio="none" viewBox="0 0 24 24"><path d="M4.94862 4.68299C5.32839 4.24896 5.87704 4 6.45377 4H17.5462C18.123 4 18.6716 4.24896 19.0514 4.68299L22.5514 8.68299C23.6829 9.97616 22.7645 12 21.0462 12H2.95377C1.23545 12 0.317095 9.97616 1.44861 8.68299L4.94862 4.68299ZM17.5462 6L6.45377 6L2.95377 10H21.0462L17.5462 6ZM2 15C2 14.4477 2.44772 14 3 14H21C21.5523 14 22 14.4477 22 15C22 15.5523 21.5523 16 21 16H3C2.44772 16 2 15.5523 2 15ZM3 19C3 18.4477 3.44772 18 4 18H20C20.5523 18 21 18.4477 21 19C21 19.5523 20.5523 20 20 20H4C3.44772 20 3 19.5523 3 19Z" fill="currentColor"></path></svg>
