<svg xmlns="http://www.w3.org/2000/svg" fill="none" preserveAspectRatio="none" viewBox="0 0 24 24"><g><path d="M6.34354 4.92893C6.7341 5.31946 6.7341 5.95262 6.34354 6.34315C3.21906 9.46734 3.21906 14.5327 6.34354 17.6569C6.7341 18.0474 6.7341 18.6805 6.34354 19.0711C5.95298 19.4616 5.31976 19.4616 4.9292 19.0711C1.0236 15.1658 1.0236 8.83418 4.9292 4.92893C5.31976 4.53841 5.95298 4.53841 6.34354 4.92893ZM17.6583 4.92893C18.0488 4.53841 18.682 4.53841 19.0726 4.92893C22.9782 8.83418 22.9782 15.1658 19.0726 19.0711C18.682 19.4616 18.0488 19.4616 17.6583 19.0711C17.2677 18.6805 17.2677 18.0474 17.6583 17.6569C20.7827 14.5327 20.7827 9.46734 17.6583 6.34315C17.2677 5.95262 17.2677 5.31946 17.6583 4.92893Z" fill="currentColor"></path><path d="M9.17222 7.75736C9.56278 8.14788 9.56278 8.78105 9.17222 9.17157C7.60998 10.7337 7.60998 13.2663 9.17222 14.8284C9.56278 15.219 9.56278 15.8521 9.17222 16.2426C8.78166 16.6332 8.14844 16.6332 7.75788 16.2426C5.41452 13.8995 5.41452 10.1005 7.75788 7.75736C8.14844 7.36683 8.78166 7.36683 9.17222 7.75736ZM14.8296 7.75736C15.2201 7.36683 15.8534 7.36683 16.2439 7.75736C18.5873 10.1005 18.5873 13.8995 16.2439 16.2426C15.8534 16.6332 15.2201 16.6332 14.8296 16.2426C14.439 15.8521 14.439 15.219 14.8296 14.8284C16.3918 13.2663 16.3918 10.7337 14.8296 9.17157C14.439 8.78105 14.439 8.14788 14.8296 7.75736Z" fill="currentColor"></path><path d="M14.0011 12C14.0011 13.1046 13.1056 14 12.0009 14C10.8962 14 10.0007 13.1046 10.0007 12C10.0007 10.8954 10.8962 10 12.0009 10C13.1056 10 14.0011 10.8954 14.0011 12Z" fill="currentColor"></path></g></svg>
