<svg xmlns="http://www.w3.org/2000/svg" viewBox="0 0 24 24" fill="none"><path d="M12 18C13.1 18 14 18.9 14 20C14 21.1 13.1 22 12 22C10.9 22 10 21.1 10 20C10 18.9 10.9 18 12 18ZM12 14C14.8 14 17.3 15.2 19.1 17.1L17.7 18.5C16.3 17.1 14.3 16.2 12 16.2C9.7 16.2 7.7 17.1 6.3 18.5L4.9 17.1C6.7 15.2 9.2 14 12 14ZM12 10C15.7 10 19.1 11.3 21.8 13.6L20.4 15C18.1 13 15.2 11.9 12 11.9C8.8 11.9 5.9 13 3.6 15L2.2 13.6C4.9 11.3 8.3 10 12 10ZM12 6C16.6 6 20.9 7.5 24.5 10.1L23.1 11.5C19.9 9.2 16.1 7.9 12 7.9C7.9 7.9 4.1 9.2 0.9 11.5L-0.5 10.1C3.1 7.5 7.4 6 12 6Z" fill="currentColor"></path></svg>
