<svg xmlns="http://www.w3.org/2000/svg" fill="none" preserveAspectRatio="none" viewBox="0 0 24 24"><path d="M8.86575 5.00294C9.32074 5.02763 9.75366 5.20696 10.0929 5.51122C10.1285 5.54322 10.166 5.58025 10.2929 5.70711L10.3095 5.72369C10.4127 5.82694 10.4905 5.90476 10.5717 5.97755C11.25 6.58609 12.1159 6.94473 13.0259 6.99412C13.1347 7.00003 13.2448 7.00002 13.3908 7L16.2 7C17.0566 7 17.6389 7.00078 18.089 7.03755C18.5274 7.07337 18.7516 7.1383 18.908 7.21799C19.2843 7.40973 19.5903 7.7157 19.782 8.09202C19.8617 8.24842 19.9266 8.47262 19.9624 8.91104C19.9864 9.20463 19.9951 9.55447 19.9982 10H4V8.8C4 7.94342 4.00078 7.36113 4.03755 6.91104C4.07337 6.47262 4.1383 6.24842 4.21799 6.09202C4.40973 5.71569 4.71569 5.40973 5.09202 5.21799C5.24842 5.1383 5.47262 5.07337 5.91104 5.03755C6.36113 5.00078 6.94342 5 7.8 5H8.58579C8.76519 5 8.81789 5.00034 8.86575 5.00294ZM22 10.7587C22 9.95372 22 9.28936 21.9558 8.74817C21.9099 8.18608 21.8113 7.66937 21.564 7.18404C21.1805 6.43139 20.5686 5.81947 19.816 5.43597C19.3306 5.18868 18.8139 5.09012 18.2518 5.04419C17.7106 4.99998 17.0463 4.99999 16.2413 5L13.4142 5C13.2348 5 13.1821 4.99966 13.1343 4.99706C12.6793 4.97237 12.2463 4.79304 11.9071 4.48878C11.8715 4.45678 11.834 4.41975 11.7071 4.29289L11.6905 4.27632C11.5873 4.17306 11.5095 4.09524 11.4283 4.02245C10.75 3.41391 9.88412 3.05527 8.97413 3.00588C8.86528 2.99997 8.75524 2.99998 8.60922 3L7.7587 3C6.95373 2.99999 6.28937 2.99998 5.74817 3.04419C5.18608 3.09012 4.66937 3.18868 4.18404 3.43597C3.43139 3.81947 2.81947 4.43139 2.43597 5.18404C2.18868 5.66937 2.09012 6.18608 2.04419 6.74817C1.99998 7.28937 1.99999 7.95373 2 8.7587V15.2413C1.99999 16.0463 1.99998 16.7106 2.04419 17.2518C2.09012 17.8139 2.18868 18.3306 2.43597 18.816C2.81947 19.5686 3.43139 20.1805 4.18404 20.564C4.66937 20.8113 5.18608 20.9099 5.74817 20.9558C6.28936 21 6.95372 21 7.75868 21H16.2413C17.0463 21 17.7106 21 18.2518 20.9558C18.8139 20.9099 19.3306 20.8113 19.816 20.564C20.5686 20.1805 21.1805 19.5686 21.564 18.816C21.8113 18.3306 21.9099 17.8139 21.9558 17.2518C22 16.7106 22 16.0463 22 15.2413V10.7587ZM20 12V15.2C20 16.0566 19.9992 16.6389 19.9624 17.089C19.9266 17.5274 19.8617 17.7516 19.782 17.908C19.5903 18.2843 19.2843 18.5903 18.908 18.782C18.7516 18.8617 18.5274 18.9266 18.089 18.9624C17.6389 18.9992 17.0566 19 16.2 19H7.8C6.94342 19 6.36113 18.9992 5.91104 18.9624C5.47262 18.9266 5.24842 18.8617 5.09202 18.782C4.71569 18.5903 4.40973 18.2843 4.21799 17.908C4.1383 17.7516 4.07337 17.5274 4.03755 17.089C4.00078 16.6389 4 16.0566 4 15.2V12H20Z" fill="currentColor"></path></svg>
