<svg xmlns="http://www.w3.org/2000/svg" fill="none" preserveAspectRatio="none" viewBox="0 0 24 24"><g><path d="M12.75 9.5C12.75 9.08579 13.0858 8.75 13.5 8.75H14.5C14.9142 8.75 15.25 9.08579 15.25 9.5V14.5C15.25 14.9142 14.9142 15.25 14.5 15.25H13.5C13.0858 15.25 12.75 14.9142 12.75 14.5V9.5Z" fill="currentColor"></path><path d="M9.5 8.75C9.08579 8.75 8.75 9.08579 8.75 9.5V14.5C8.75 14.9142 9.08579 15.25 9.5 15.25H10.5C10.9142 15.25 11.25 14.9142 11.25 14.5V9.5C11.25 9.08579 10.9142 8.75 10.5 8.75H9.5Z" fill="currentColor"></path><path clip-rule="evenodd" d="M1.97143 12C1.97143 6.46137 6.46137 1.97143 12 1.97143C17.5386 1.97143 22.0286 6.46137 22.0286 12C22.0286 17.5386 17.5386 22.0286 12 22.0286C6.46137 22.0286 1.97143 17.5386 1.97143 12ZM12 4.02857C7.5975 4.02857 4.02857 7.5975 4.02857 12C4.02857 16.4025 7.5975 19.9714 12 19.9714C16.4025 19.9714 19.9714 16.4025 19.9714 12C19.9714 7.5975 16.4025 4.02857 12 4.02857Z" fill="currentColor" fill-rule="evenodd"></path></g></svg>
