<svg xmlns="http://www.w3.org/2000/svg" fill="none" preserveAspectRatio="none" viewBox="0 0 24 24"><path d="M10.2577 1.55456C11.0227 0.197269 12.9773 0.197268 13.7423 1.55456L16.2966 6.08628L21.3958 7.11515C22.9231 7.42331 23.5271 9.2822 22.4726 10.4292L18.952 14.2588L19.5492 19.4264C19.7281 20.9742 18.1468 22.123 16.7301 21.4746L12 19.3098L7.26987 21.4746C5.85316 22.123 4.2719 20.9742 4.45077 19.4264L5.04801 14.2588L1.52739 10.4292C0.472942 9.2822 1.07693 7.42331 2.60419 7.11515L7.70343 6.08628L10.2577 1.55456ZM14.5543 7.06831L12 2.53659L9.44573 7.06831C9.16033 7.57467 8.66876 7.93181 8.099 8.04677L2.99976 9.07564L6.52038 12.9053C6.91375 13.3332 7.10151 13.9111 7.03478 14.4885L6.43755 19.6561L11.1677 17.4912C11.6962 17.2493 12.3038 17.2493 12.8323 17.4912L17.5625 19.6561L16.9652 14.4885C16.8985 13.9111 17.0862 13.3332 17.4796 12.9053L21.0002 9.07564L15.901 8.04677C15.3312 7.93181 14.8397 7.57467 14.5543 7.06831Z" fill="currentColor"></path></svg>
