<svg xmlns="http://www.w3.org/2000/svg" fill="none" preserveAspectRatio="none" viewBox="0 0 24 24"><path d="M2.5582 12C2.5582 6.75329 6.81149 2.5 12.0582 2.5C14.5734 2.5 16.8595 3.47759 18.5582 5.07197V3.5C18.5582 2.94772 19.0059 2.5 19.5582 2.5C20.1105 2.5 20.5582 2.94772 20.5582 3.5V7.97591C20.5586 7.99622 20.5584 8.01651 20.5575 8.03674C20.5382 8.572 20.0982 9 19.5582 9H15.0582C14.5059 9 14.0582 8.55228 14.0582 8C14.0582 7.44772 14.5059 7 15.0582 7H17.6487C16.2746 5.46469 14.2786 4.5 12.0582 4.5C7.91606 4.5 4.5582 7.85786 4.5582 12C4.5582 16.1421 7.91606 19.5 12.0582 19.5C15.9011 19.5 19.0702 16.6089 19.5068 12.8836C19.5711 12.3351 20.0679 11.9425 20.6164 12.0068C21.1649 12.0711 21.5575 12.5679 21.4932 13.1164C20.9399 17.8375 16.9275 21.5 12.0582 21.5C6.81149 21.5 2.5582 17.2467 2.5582 12Z" fill="currentColor"></path></svg>
