<svg xmlns="http://www.w3.org/2000/svg" fill="none" preserveAspectRatio="none" viewBox="0 0 24 24"><g><path d="M8.6585 5.74742C8.24287 5.38374 7.61111 5.42586 7.24742 5.8415C6.88374 6.25713 6.92586 6.88889 7.3415 7.25258L11.3415 10.7526C11.7185 11.0825 12.2815 11.0825 12.6585 10.7526L16.6585 7.25258C17.0741 6.88889 17.1163 6.25713 16.7526 5.8415C16.3889 5.42586 15.7571 5.38374 15.3415 5.74742L12 8.67123L8.6585 5.74742Z" fill="currentColor"></path><path d="M12.6585 13.2474C12.2815 12.9175 11.7185 12.9175 11.3415 13.2474L7.34151 16.7474C6.92587 17.1111 6.88375 17.7429 7.24744 18.1585C7.61112 18.5741 8.24288 18.6163 8.65852 18.2526L12 15.3288L15.3415 18.2526C15.7571 18.6163 16.3889 18.5741 16.7526 18.1585C17.1163 17.7429 17.0742 17.1111 16.6585 16.7474L12.6585 13.2474Z" fill="currentColor"></path></g></svg>
