<svg xmlns="http://www.w3.org/2000/svg" fill="none" preserveAspectRatio="none" viewBox="0 0 24 24"><path d="M11.3415 4.74742C11.7185 4.41752 12.2815 4.41752 12.6585 4.74742L16.6585 8.24742C17.0741 8.6111 17.1162 9.24286 16.7526 9.6585C16.3889 10.0741 15.7571 10.1163 15.3415 9.75257L12 6.82876L8.65849 9.75257C8.24286 10.1163 7.61109 10.0741 7.24741 9.6585C6.88373 9.24286 6.92585 8.6111 7.34148 8.24742L11.3415 4.74742ZM7.24604 14.3578C7.60885 13.9414 8.24053 13.8979 8.65692 14.2608L12 17.1736L15.3431 14.2608C15.7595 13.8979 16.3911 13.9414 16.7539 14.3578C17.1168 14.7742 17.0733 15.4058 16.6569 15.7687L12.6569 19.2539C12.2804 19.582 11.7196 19.582 11.3431 19.2539L7.34306 15.7687C6.92666 15.4058 6.88323 14.7742 7.24604 14.3578Z" fill="currentColor"></path></svg>
