<svg xmlns="http://www.w3.org/2000/svg" fill="none" preserveAspectRatio="none" viewBox="0 0 24 24"><g><path d="M3.63109 2.22484C3.23832 1.90449 2.65932 1.92709 2.2932 2.2932C1.92709 2.65932 1.90449 3.23832 2.22484 3.63109L2.2932 3.70727L4.96801 6.38207C3.95794 7.645 3.28016 9.18789 3.06957 10.8762C3.00139 11.424 3.38998 11.9239 3.93773 11.9924C4.48559 12.0607 4.98534 11.672 5.05395 11.1243C5.20771 9.89113 5.68286 8.75675 6.39379 7.80785L16.1916 17.6057C15.0228 18.4814 13.5729 19.0002 12.0002 19.0002C10.0895 19.0002 8.32708 18.2338 7.04711 17.0002H9.00023L9.10277 16.9954C9.60673 16.9439 10.0001 16.5177 10.0002 16.0002C10.0002 15.4826 9.60678 15.0566 9.10277 15.0051L9.00023 15.0002H5.00023C4.44795 15.0002 4.00023 15.4479 4.00023 16.0002V20.0002C4.00036 20.5524 4.44803 21.0002 5.00023 21.0002C5.55233 21.0001 6.00011 20.5523 6.00023 20.0002V18.7551C7.60904 20.1539 9.72488 21.0002 12.0002 21.0002C14.1247 21.0002 16.0764 20.2604 17.6155 19.0295L20.2932 21.7073L20.3694 21.7756C20.7621 22.0958 21.3412 22.0733 21.7073 21.7073C22.0733 21.3412 22.0958 20.7621 21.7756 20.3694L21.7073 20.2932L18.4534 17.0393C18.4275 17.0059 18.4 16.9732 18.3694 16.9426C18.3391 16.9124 18.3066 16.8851 18.2737 16.8596L3.70727 2.2932L3.63109 2.22484Z" fill="currentColor"></path><path d="M19.4621 15.0608C19.995 15.2046 20.5444 14.8895 20.6887 14.3567C20.77 14.0563 20.8359 13.7495 20.886 13.4377L20.9309 13.1243C20.9992 12.5763 20.6097 12.0765 20.0618 12.008C19.5481 11.9442 19.0773 12.2817 18.9641 12.7756L18.9455 12.8762C18.9048 13.2031 18.8422 13.5233 18.758 13.8342C18.6139 14.3673 18.9291 14.9165 19.4621 15.0608Z" fill="currentColor"></path><path d="M20.012 4.00023C20.012 3.44803 19.5641 3.00037 19.012 3.00023C18.4597 3.00031 18.012 3.44799 18.012 4.00023V5.25414C16.4018 3.84947 14.2809 3.00033 12.0002 3.00023C11.1928 3.00025 10.4081 3.10645 9.66137 3.30687C9.12807 3.45012 8.81216 3.99912 8.95531 4.53246C9.09865 5.06555 9.64672 5.38153 10.1799 5.23852C10.7591 5.08308 11.3695 5.00025 12.0002 5.00023C13.9111 5.00033 15.6734 5.76653 16.9534 7.00023H15.012C14.4597 7.00031 14.012 7.44799 14.012 8.00023C14.0121 8.55237 14.4598 9.00016 15.012 9.00023H19.012L19.0159 8.99926C19.0272 8.99909 19.0387 8.99884 19.05 8.99828C19.5845 8.97811 20.0118 8.53956 20.012 8.00023V4.00023Z" fill="currentColor"></path></g></svg>
