<svg xmlns="http://www.w3.org/2000/svg" fill="none" preserveAspectRatio="none" viewBox="0 0 24 24"><path d="M5.33333 5.66667C5.88562 5.66667 6.33333 6.11438 6.33333 6.66667C6.33333 7.61223 6.33388 8.27132 6.36907 8.78722C6.40366 9.29413 6.46834 9.58933 6.5617 9.81472C6.86618 10.5498 7.4502 11.1338 8.18528 11.4383C8.41067 11.5317 8.70587 11.5963 9.21278 11.6309C9.72868 11.6661 10.3878 11.6667 11.3333 11.6667H16.2525L13.9596 9.37377C13.569 8.98325 13.569 8.35008 13.9596 7.95956C14.3501 7.56904 14.9833 7.56904 15.3738 7.95956L19.3738 11.9596C19.7643 12.3501 19.7643 12.9832 19.3738 13.3738L15.3738 17.3738C14.9833 17.7643 14.3501 17.7643 13.9596 17.3738C13.569 16.9832 13.569 16.3501 13.9596 15.9596L16.2525 13.6667H11.2978C10.3961 13.6667 9.66865 13.6667 9.07664 13.6263C8.4679 13.5848 7.92962 13.4972 7.41992 13.2861C6.19478 12.7786 5.22141 11.8052 4.71394 10.5801C4.50281 10.0704 4.41525 9.5321 4.37371 8.92336C4.33332 8.33135 4.33333 7.60394 4.33333 6.70218L4.33333 6.66667C4.33333 6.11438 4.78105 5.66667 5.33333 5.66667Z" fill="currentColor"></path></svg>
